<mxfile host="app.diagrams.net" modified="2022-06-06T14:46:39.226Z" agent="5.0 (X11)" etag="WZAGzhHWapgDa_3VNark" version="19.0.0" type="github">
  <diagram id="ad-lsBwaoq_hX-LNnD97" name="Page-1">
    <mxGraphModel dx="1422" dy="789" grid="1" gridSize="10" guides="1" tooltips="1" connect="1" arrows="1" fold="1" page="1" pageScale="1" pageWidth="850" pageHeight="1100" math="0" shadow="0">
      <root>
        <mxCell id="0" />
        <mxCell id="1" parent="0" />
        <mxCell id="bWGEidWGkiljW06ko3HO-1" value="" style="rounded=0;whiteSpace=wrap;html=1;fontSize=18;" vertex="1" parent="1">
          <mxGeometry x="200" y="80" width="630" height="550" as="geometry" />
        </mxCell>
        <mxCell id="bWGEidWGkiljW06ko3HO-2" value="" style="rounded=0;whiteSpace=wrap;html=1;" vertex="1" parent="1">
          <mxGeometry x="400" y="150" width="400" height="430" as="geometry" />
        </mxCell>
        <mxCell id="bWGEidWGkiljW06ko3HO-3" value="&lt;font style=&quot;font-size: 18px;&quot;&gt;Cluster&lt;/font&gt;" style="text;html=1;strokeColor=none;fillColor=none;align=center;verticalAlign=middle;whiteSpace=wrap;rounded=0;" vertex="1" parent="1">
          <mxGeometry x="400" y="150" width="70" height="40" as="geometry" />
        </mxCell>
        <mxCell id="bWGEidWGkiljW06ko3HO-4" value="" style="rounded=1;whiteSpace=wrap;html=1;fontSize=18;" vertex="1" parent="1">
          <mxGeometry x="600" y="190" width="140" height="80" as="geometry" />
        </mxCell>
        <mxCell id="bWGEidWGkiljW06ko3HO-5" value="" style="rounded=1;whiteSpace=wrap;html=1;fontSize=18;" vertex="1" parent="1">
          <mxGeometry x="600" y="455" width="140" height="80" as="geometry" />
        </mxCell>
        <mxCell id="bWGEidWGkiljW06ko3HO-6" value="" style="rounded=1;whiteSpace=wrap;html=1;fontSize=18;" vertex="1" parent="1">
          <mxGeometry x="600" y="320" width="140" height="80" as="geometry" />
        </mxCell>
        <mxCell id="bWGEidWGkiljW06ko3HO-7" value="" style="endArrow=classic;html=1;rounded=0;fontSize=18;entryX=0.5;entryY=0;entryDx=0;entryDy=0;" edge="1" parent="1" source="bWGEidWGkiljW06ko3HO-4" target="bWGEidWGkiljW06ko3HO-6">
          <mxGeometry width="50" height="50" relative="1" as="geometry">
            <mxPoint x="500" y="390" as="sourcePoint" />
            <mxPoint x="550" y="340" as="targetPoint" />
          </mxGeometry>
        </mxCell>
        <mxCell id="bWGEidWGkiljW06ko3HO-8" value="" style="endArrow=classic;html=1;rounded=0;fontSize=18;entryX=0.5;entryY=0;entryDx=0;entryDy=0;exitX=0.5;exitY=1;exitDx=0;exitDy=0;" edge="1" parent="1" source="bWGEidWGkiljW06ko3HO-6" target="bWGEidWGkiljW06ko3HO-5">
          <mxGeometry width="50" height="50" relative="1" as="geometry">
            <mxPoint x="679.5" y="440" as="sourcePoint" />
            <mxPoint x="679.5" y="490" as="targetPoint" />
          </mxGeometry>
        </mxCell>
        <mxCell id="bWGEidWGkiljW06ko3HO-9" value="Nginx" style="text;html=1;strokeColor=none;fillColor=none;align=center;verticalAlign=middle;whiteSpace=wrap;rounded=0;fontSize=18;" vertex="1" parent="1">
          <mxGeometry x="640" y="215" width="60" height="30" as="geometry" />
        </mxCell>
        <mxCell id="bWGEidWGkiljW06ko3HO-10" value="&lt;div&gt;Todolist app&lt;/div&gt;" style="text;html=1;strokeColor=none;fillColor=none;align=center;verticalAlign=middle;whiteSpace=wrap;rounded=0;fontSize=18;" vertex="1" parent="1">
          <mxGeometry x="630" y="345" width="80" height="30" as="geometry" />
        </mxCell>
        <mxCell id="bWGEidWGkiljW06ko3HO-11" value="MongoDB" style="text;html=1;strokeColor=none;fillColor=none;align=center;verticalAlign=middle;whiteSpace=wrap;rounded=0;fontSize=18;" vertex="1" parent="1">
          <mxGeometry x="640" y="480" width="60" height="30" as="geometry" />
        </mxCell>
        <mxCell id="bWGEidWGkiljW06ko3HO-12" value="&lt;div&gt;&lt;font style=&quot;font-size: 24px;&quot;&gt;Cloud&lt;/font&gt;&lt;/div&gt;" style="text;html=1;strokeColor=none;fillColor=none;align=center;verticalAlign=middle;whiteSpace=wrap;rounded=0;fontSize=18;" vertex="1" parent="1">
          <mxGeometry x="210" y="90" width="60" height="30" as="geometry" />
        </mxCell>
        <mxCell id="bWGEidWGkiljW06ko3HO-13" value="" style="rounded=0;whiteSpace=wrap;html=1;fontSize=24;" vertex="1" parent="1">
          <mxGeometry x="220" y="500" width="120" height="80" as="geometry" />
        </mxCell>
        <mxCell id="bWGEidWGkiljW06ko3HO-14" value="&lt;font style=&quot;font-size: 18px;&quot;&gt;ECR/GCR&lt;/font&gt;" style="text;html=1;strokeColor=none;fillColor=none;align=center;verticalAlign=middle;whiteSpace=wrap;rounded=0;fontSize=24;" vertex="1" parent="1">
          <mxGeometry x="250" y="525" width="60" height="30" as="geometry" />
        </mxCell>
      </root>
    </mxGraphModel>
  </diagram>
</mxfile>
